<mxfile host="app.diagrams.net" modified="2023-03-26T03:14:36.427Z" agent="Mozilla/5.0 (Windows NT 10.0; Win64; x64) AppleWebKit/537.36 (KHTML, like Gecko) Chrome/111.0.0.0 Safari/537.36" etag="rGcFFjD78hTTlKPSIdW1" version="21.1.1" type="github">
  <diagram name="第 1 页" id="7o4J3BjzM77SQklbPleT">
    <mxGraphModel dx="1434" dy="804" grid="1" gridSize="10" guides="1" tooltips="1" connect="1" arrows="1" fold="1" page="1" pageScale="1" pageWidth="827" pageHeight="1169" math="0" shadow="0">
      <root>
        <mxCell id="0" />
        <mxCell id="1" parent="0" />
        <mxCell id="FhrdW1dW9tx8D7tIXxmO-1" value="" style="rounded=0;whiteSpace=wrap;html=1;" vertex="1" parent="1">
          <mxGeometry x="70" y="130" width="670" height="290" as="geometry" />
        </mxCell>
        <mxCell id="FhrdW1dW9tx8D7tIXxmO-2" value="" style="rounded=0;whiteSpace=wrap;html=1;" vertex="1" parent="1">
          <mxGeometry x="80" y="190" width="350" height="160" as="geometry" />
        </mxCell>
        <mxCell id="FhrdW1dW9tx8D7tIXxmO-3" value="" style="rounded=0;whiteSpace=wrap;html=1;" vertex="1" parent="1">
          <mxGeometry x="440" y="190" width="270" height="160" as="geometry" />
        </mxCell>
        <mxCell id="FhrdW1dW9tx8D7tIXxmO-4" value="&lt;font style=&quot;font-size: 24px;&quot;&gt;堆&lt;/font&gt;" style="text;html=1;strokeColor=none;fillColor=none;align=center;verticalAlign=middle;whiteSpace=wrap;rounded=0;" vertex="1" parent="1">
          <mxGeometry x="414" y="140" width="60" height="30" as="geometry" />
        </mxCell>
        <mxCell id="FhrdW1dW9tx8D7tIXxmO-5" value="" style="rounded=0;whiteSpace=wrap;html=1;" vertex="1" parent="1">
          <mxGeometry x="760" y="130" width="270" height="290" as="geometry" />
        </mxCell>
        <mxCell id="FhrdW1dW9tx8D7tIXxmO-7" value="" style="rounded=0;whiteSpace=wrap;html=1;" vertex="1" parent="1">
          <mxGeometry x="770" y="190" width="250" height="160" as="geometry" />
        </mxCell>
        <mxCell id="FhrdW1dW9tx8D7tIXxmO-8" value="&lt;font style=&quot;font-size: 24px;&quot;&gt;非堆&lt;/font&gt;" style="text;html=1;strokeColor=none;fillColor=none;align=center;verticalAlign=middle;whiteSpace=wrap;rounded=0;" vertex="1" parent="1">
          <mxGeometry x="865" y="140" width="60" height="30" as="geometry" />
        </mxCell>
        <mxCell id="FhrdW1dW9tx8D7tIXxmO-9" value="&lt;code style=&quot;box-sizing: border-box; outline: 0px; font-family: &amp;quot;Source Code Pro&amp;quot;, &amp;quot;DejaVu Sans Mono&amp;quot;, &amp;quot;Ubuntu Mono&amp;quot;, &amp;quot;Anonymous Pro&amp;quot;, &amp;quot;Droid Sans Mono&amp;quot;, Menlo, Monaco, Consolas, Inconsolata, Courier, monospace, &amp;quot;PingFang SC&amp;quot;, &amp;quot;Microsoft YaHei&amp;quot;, sans-serif; font-size: 14px; line-height: 22px; color: rgb(199, 37, 78); background-color: rgb(249, 242, 244); border-radius: 2px; padding: 2px 4px; overflow-wrap: break-word; font-variant-ligatures: no-common-ligatures; text-align: left;&quot;&gt;JDK 8之前&lt;/code&gt;，习惯上称&lt;code style=&quot;box-sizing: border-box; outline: 0px; font-family: &amp;quot;Source Code Pro&amp;quot;, &amp;quot;DejaVu Sans Mono&amp;quot;, &amp;quot;Ubuntu Mono&amp;quot;, &amp;quot;Anonymous Pro&amp;quot;, &amp;quot;Droid Sans Mono&amp;quot;, Menlo, Monaco, Consolas, Inconsolata, Courier, monospace, &amp;quot;PingFang SC&amp;quot;, &amp;quot;Microsoft YaHei&amp;quot;, sans-serif; font-size: 14px; line-height: 22px; color: rgb(199, 37, 78); background-color: rgb(249, 242, 244); border-radius: 2px; padding: 2px 4px; overflow-wrap: break-word; font-variant-ligatures: no-common-ligatures; text-align: left;&quot;&gt;方法区为永久代&lt;/code&gt;&lt;span style=&quot;color: rgb(77, 77, 77); font-family: -apple-system, &amp;quot;SF UI Text&amp;quot;, Arial, &amp;quot;PingFang SC&amp;quot;, &amp;quot;Hiragino Sans GB&amp;quot;, &amp;quot;Microsoft YaHei&amp;quot;, &amp;quot;WenQuanYi Micro Hei&amp;quot;, sans-serif; font-size: 16px; font-variant-ligatures: no-common-ligatures; text-align: left; background-color: rgb(255, 255, 255);&quot;&gt;，&lt;/span&gt;&lt;code style=&quot;box-sizing: border-box; outline: 0px; font-family: &amp;quot;Source Code Pro&amp;quot;, &amp;quot;DejaVu Sans Mono&amp;quot;, &amp;quot;Ubuntu Mono&amp;quot;, &amp;quot;Anonymous Pro&amp;quot;, &amp;quot;Droid Sans Mono&amp;quot;, Menlo, Monaco, Consolas, Inconsolata, Courier, monospace, &amp;quot;PingFang SC&amp;quot;, &amp;quot;Microsoft YaHei&amp;quot;, sans-serif; font-size: 14px; line-height: 22px; color: rgb(199, 37, 78); background-color: rgb(249, 242, 244); border-radius: 2px; padding: 2px 4px; overflow-wrap: break-word; font-variant-ligatures: no-common-ligatures; text-align: left;&quot;&gt;JDK 8开始&lt;/code&gt;&lt;span style=&quot;color: rgb(77, 77, 77); font-family: -apple-system, &amp;quot;SF UI Text&amp;quot;, Arial, &amp;quot;PingFang SC&amp;quot;, &amp;quot;Hiragino Sans GB&amp;quot;, &amp;quot;Microsoft YaHei&amp;quot;, &amp;quot;WenQuanYi Micro Hei&amp;quot;, sans-serif; font-size: 16px; font-variant-ligatures: no-common-ligatures; text-align: left; background-color: rgb(255, 255, 255);&quot;&gt;，使用&lt;/span&gt;&lt;code style=&quot;box-sizing: border-box; outline: 0px; font-family: &amp;quot;Source Code Pro&amp;quot;, &amp;quot;DejaVu Sans Mono&amp;quot;, &amp;quot;Ubuntu Mono&amp;quot;, &amp;quot;Anonymous Pro&amp;quot;, &amp;quot;Droid Sans Mono&amp;quot;, Menlo, Monaco, Consolas, Inconsolata, Courier, monospace, &amp;quot;PingFang SC&amp;quot;, &amp;quot;Microsoft YaHei&amp;quot;, sans-serif; font-size: 14px; line-height: 22px; color: rgb(199, 37, 78); background-color: rgb(249, 242, 244); border-radius: 2px; padding: 2px 4px; overflow-wrap: break-word; font-variant-ligatures: no-common-ligatures; text-align: left;&quot;&gt;元空间替代了永久代&lt;/code&gt;" style="text;html=1;align=center;verticalAlign=middle;resizable=0;points=[];autosize=1;strokeColor=none;fillColor=none;" vertex="1" parent="1">
          <mxGeometry x="60" y="50" width="540" height="40" as="geometry" />
        </mxCell>
        <mxCell id="FhrdW1dW9tx8D7tIXxmO-10" value="常量池" style="rounded=0;whiteSpace=wrap;html=1;fontSize=14;" vertex="1" parent="1">
          <mxGeometry x="776" y="210" width="110" height="40" as="geometry" />
        </mxCell>
        <mxCell id="FhrdW1dW9tx8D7tIXxmO-11" value="f方法元信息" style="rounded=0;whiteSpace=wrap;html=1;fontSize=14;" vertex="1" parent="1">
          <mxGeometry x="776" y="270" width="110" height="40" as="geometry" />
        </mxCell>
        <mxCell id="FhrdW1dW9tx8D7tIXxmO-12" value="class类信息" style="rounded=0;whiteSpace=wrap;html=1;fontSize=14;" vertex="1" parent="1">
          <mxGeometry x="900" y="210" width="110" height="40" as="geometry" />
        </mxCell>
      </root>
    </mxGraphModel>
  </diagram>
</mxfile>
